<svg version="1.1" id="Layer_1" xmlns="http://www.w3.org/2000/svg" xmlns:xlink="http://www.w3.org/1999/xlink" x="0px" y="0px"
	 width="100%" viewBox="0 0 608 608" enable-background="new 0 0 608 608" xml:space="preserve">
<path fill="none" opacity="1.000000" stroke="#FFFFFF" stroke-width="10"
	d="
M178.675903,239.982849 
	C178.674194,226.320694 178.808395,213.153427 178.591644,199.991913 
	C178.523148,195.832016 179.940430,194.575729 184.029739,194.580551 
	C266.019501,194.677200 348.009460,194.685181 429.999237,194.596832 
	C434.146698,194.592361 435.460938,195.948196 435.412872,200.051483 
	C435.229309,215.714066 435.236115,231.381241 435.411072,247.044037 
	C435.457428,251.192307 433.996429,252.488251 429.903931,252.463150 
	C406.741058,252.321106 383.576080,252.505676 360.413696,252.328827 
	C355.734528,252.293106 354.189789,253.578171 354.222839,258.500061 
	C354.445496,291.661163 354.322327,324.824463 354.364838,357.987000 
	C354.368744,361.042450 354.079773,363.869080 352.373169,366.563293 
	C345.510590,377.396973 338.774750,388.310852 331.974243,399.183960 
	C331.459503,400.006989 330.963989,400.944794 329.589417,400.941437 
	C328.028198,399.555756 328.734375,397.604065 328.732941,395.915100 
	C328.687714,341.588470 328.747040,287.261658 328.602020,232.935410 
	C328.589142,228.122894 330.075470,226.627197 334.862274,226.669174 
	C358.024323,226.872375 381.189148,226.782135 404.352875,226.736130 
	C406.073242,226.732712 408.144836,227.428879 409.348053,225.424164 
	C410.967133,222.726425 409.120911,220.295670 405.267700,220.273056 
	C393.936127,220.206573 382.603973,220.237625 371.272034,220.236435 
	C357.773682,220.235031 344.275360,220.243866 330.777008,220.240356 
	C322.299042,220.238144 322.293274,220.231628 322.292755,228.470169 
	C322.289001,287.462921 322.220978,346.455841 322.383850,405.448151 
	C322.401123,411.699768 321.440460,417.188477 317.522430,422.206116 
	C314.682190,425.843445 312.994202,430.319946 309.345337,434.239014 
	C305.362457,430.322021 303.554962,425.205627 300.400391,421.082825 
	C297.295288,417.024597 296.576904,412.539886 296.585754,407.516418 
	C296.691895,347.190735 296.576782,286.864594 296.753357,226.539246 
	C296.768524,221.354752 295.205627,220.112564 290.246918,220.153854 
	C263.752045,220.374496 237.254333,220.252213 210.757599,220.252930 
	C209.591614,220.252960 208.423904,220.264374 207.260010,220.326660 
	C205.177383,220.438110 204.412506,221.691971 204.370865,223.642883 
	C204.326080,225.740784 205.323288,226.706512 207.380859,226.707092 
	C209.880356,226.707809 212.379837,226.746918 214.879333,226.747742 
	C237.709854,226.755280 260.540375,226.746262 283.370911,226.770096 
	C289.599579,226.776611 290.050903,227.146835 290.055084,233.198471 
	C290.092712,287.525024 290.091827,341.851624 290.076538,396.178192 
	C290.076111,397.615753 290.418762,399.201843 289.110992,400.430359 
	C287.109711,400.679993 286.706238,398.923676 285.986237,397.779205 
	C279.244415,387.062286 272.619751,376.271362 265.832336,365.583710 
	C264.200378,363.014008 263.991119,360.328308 263.992584,357.465332 
	C264.009338,324.802704 264.007141,292.140045 263.991699,259.477417 
	C263.988403,252.464005 263.894623,252.391510 257.128632,252.397675 
	C232.465195,252.420166 207.801041,252.363892 183.139099,252.570374 
	C179.426102,252.601456 178.431046,251.297058 178.648392,247.971909 
	C178.810974,245.484604 178.677658,242.977966 178.675903,239.982849 
z"/>
</svg>
