<?xml version="1.0" encoding="UTF-8"?>
<svg xmlns="http://www.w3.org/2000/svg" xmlns:xlink="http://www.w3.org/1999/xlink" width="2000" height="2000" viewBox="0 0 2000 2000">
<defs>
<clipPath id="clip-0">
<path clip-rule="nonzero" d="M 1179 1225 L 1759 1225 L 1759 1707 L 1179 1707 Z M 1179 1225 "/>
</clipPath>
<clipPath id="clip-1">
<path clip-rule="nonzero" d="M 1694.429688 1334.160156 L 1483.628906 1334.160156 L 1483.628906 1588.019531 L 1469.320312 1602.320312 L 1455.019531 1588.019531 L 1455.019531 1334.160156 L 1244.210938 1334.160156 L 1214.691406 1262.148438 L 1287.539062 1262.148438 L 1306.609375 1310.789062 L 1443.929688 1310.789062 L 1432.839844 1287.429688 L 1322.550781 1287.429688 L 1312.640625 1262.148438 L 1382.371094 1262.148438 L 1395.71875 1248.800781 L 1542.929688 1248.800781 L 1556.28125 1262.148438 L 1626.011719 1262.148438 L 1616.101562 1287.429688 L 1505.800781 1287.429688 L 1494.71875 1310.789062 L 1632.03125 1310.789062 L 1651.109375 1262.148438 L 1723.960938 1262.148438 Z M 1565.960938 1238.789062 L 1552.609375 1225.429688 L 1386.039062 1225.429688 L 1372.691406 1238.789062 L 1179.859375 1238.789062 L 1228.539062 1357.519531 L 1392.550781 1357.519531 L 1392.550781 1650.148438 L 1426.570312 1684.171875 C 1426.410156 1685.160156 1426.328125 1686.171875 1426.328125 1687.199219 C 1426.328125 1697.691406 1434.828125 1706.191406 1445.320312 1706.191406 C 1455.808594 1706.191406 1464.320312 1697.691406 1464.320312 1687.199219 C 1464.320312 1676.699219 1455.808594 1668.199219 1445.320312 1668.199219 C 1444.78125 1668.199219 1444.25 1668.230469 1443.71875 1668.269531 L 1415.921875 1640.46875 L 1415.921875 1357.519531 L 1431.648438 1357.519531 L 1431.648438 1597.699219 C 1443.96875 1610.070312 1456.289062 1622.441406 1468.601562 1634.808594 C 1468.839844 1635.050781 1469.078125 1635.289062 1469.320312 1635.53125 C 1469.558594 1635.289062 1469.808594 1635.050781 1470.050781 1634.808594 C 1482.359375 1622.441406 1494.679688 1610.070312 1507 1597.699219 L 1507 1357.519531 L 1522.730469 1357.519531 L 1522.730469 1640.46875 L 1494.929688 1668.269531 C 1494.398438 1668.230469 1493.871094 1668.199219 1493.328125 1668.199219 C 1482.839844 1668.199219 1474.328125 1676.699219 1474.328125 1687.199219 C 1474.328125 1697.691406 1482.839844 1706.191406 1493.328125 1706.191406 C 1503.820312 1706.191406 1512.320312 1697.691406 1512.320312 1687.199219 C 1512.320312 1686.171875 1512.238281 1685.160156 1512.078125 1684.171875 L 1546.101562 1650.148438 L 1546.101562 1357.519531 L 1710.109375 1357.519531 L 1758.789062 1238.789062 Z M 1565.960938 1238.789062 "/>
</clipPath>
<clipPath id="clip-2">
<path clip-rule="nonzero" d="M 1694.429688 1334.160156 L 1483.628906 1334.160156 L 1483.628906 1588.019531 L 1469.320312 1602.320312 L 1455.019531 1588.019531 L 1455.019531 1334.160156 L 1244.210938 1334.160156 L 1214.691406 1262.148438 L 1287.539062 1262.148438 L 1306.609375 1310.789062 L 1443.929688 1310.789062 L 1432.839844 1287.429688 L 1322.550781 1287.429688 L 1312.640625 1262.148438 L 1382.371094 1262.148438 L 1395.71875 1248.800781 L 1542.929688 1248.800781 L 1556.28125 1262.148438 L 1626.011719 1262.148438 L 1616.101562 1287.429688 L 1505.800781 1287.429688 L 1494.71875 1310.789062 L 1632.03125 1310.789062 L 1651.109375 1262.148438 L 1723.960938 1262.148438 Z M 1565.960938 1238.789062 L 1552.609375 1225.429688 L 1386.039062 1225.429688 L 1372.691406 1238.789062 L 1179.859375 1238.789062 L 1228.539062 1357.519531 L 1392.550781 1357.519531 L 1392.550781 1650.148438 L 1426.570312 1684.171875 C 1426.410156 1685.160156 1426.328125 1686.171875 1426.328125 1687.199219 C 1426.328125 1697.691406 1434.828125 1706.191406 1445.320312 1706.191406 C 1455.808594 1706.191406 1464.320312 1697.691406 1464.320312 1687.199219 C 1464.320312 1676.699219 1455.808594 1668.199219 1445.320312 1668.199219 C 1444.78125 1668.199219 1444.25 1668.230469 1443.71875 1668.269531 L 1415.921875 1640.46875 L 1415.921875 1357.519531 L 1431.648438 1357.519531 L 1431.648438 1597.699219 C 1443.96875 1610.070312 1456.289062 1622.441406 1468.601562 1634.808594 C 1468.839844 1635.050781 1469.078125 1635.289062 1469.320312 1635.53125 C 1469.558594 1635.289062 1469.808594 1635.050781 1470.050781 1634.808594 C 1482.359375 1622.441406 1494.679688 1610.070312 1507 1597.699219 L 1507 1357.519531 L 1522.730469 1357.519531 L 1522.730469 1640.46875 L 1494.929688 1668.269531 C 1494.398438 1668.230469 1493.871094 1668.199219 1493.328125 1668.199219 C 1482.839844 1668.199219 1474.328125 1676.699219 1474.328125 1687.199219 C 1474.328125 1697.691406 1482.839844 1706.191406 1493.328125 1706.191406 C 1503.820312 1706.191406 1512.320312 1697.691406 1512.320312 1687.199219 C 1512.320312 1686.171875 1512.238281 1685.160156 1512.078125 1684.171875 L 1546.101562 1650.148438 L 1546.101562 1357.519531 L 1710.109375 1357.519531 L 1758.789062 1238.789062 L 1565.960938 1238.789062 "/>
</clipPath>
<linearGradient id="linear-pattern-0" gradientUnits="userSpaceOnUse" x1="-0.362535" y1="0" x2="1.299369" y2="0" gradientTransform="matrix(-321.405, 316.637, -316.637, -321.405, 1559.76, 1256.47)">
<stop offset="0" stop-color="rgb(100%, 100%, 100%)" stop-opacity="1"/>
<stop offset="0.125" stop-color="rgb(100%, 100%, 100%)" stop-opacity="1"/>
<stop offset="0.1875" stop-color="rgb(100%, 100%, 100%)" stop-opacity="1"/>
<stop offset="0.21875" stop-color="rgb(99.958801%, 99.957275%, 99.957275%)" stop-opacity="1"/>
<stop offset="0.222656" stop-color="rgb(99.354553%, 99.342346%, 99.345398%)" stop-opacity="1"/>
<stop offset="0.226562" stop-color="rgb(98.79303%, 98.771667%, 98.776245%)" stop-opacity="1"/>
<stop offset="0.230469" stop-color="rgb(98.234558%, 98.202515%, 98.21167%)" stop-opacity="1"/>
<stop offset="0.234375" stop-color="rgb(97.674561%, 97.631836%, 97.642517%)" stop-opacity="1"/>
<stop offset="0.238281" stop-color="rgb(97.114563%, 97.062683%, 97.07489%)" stop-opacity="1"/>
<stop offset="0.242188" stop-color="rgb(96.554565%, 96.492004%, 96.507263%)" stop-opacity="1"/>
<stop offset="0.246094" stop-color="rgb(95.993042%, 95.921326%, 95.93811%)" stop-opacity="1"/>
<stop offset="0.25" stop-color="rgb(95.433044%, 95.349121%, 95.370483%)" stop-opacity="1"/>
<stop offset="0.253906" stop-color="rgb(94.874573%, 94.781494%, 94.804382%)" stop-opacity="1"/>
<stop offset="0.257812" stop-color="rgb(94.313049%, 94.210815%, 94.236755%)" stop-opacity="1"/>
<stop offset="0.261719" stop-color="rgb(93.754578%, 93.640137%, 93.669128%)" stop-opacity="1"/>
<stop offset="0.265625" stop-color="rgb(93.193054%, 93.069458%, 93.099976%)" stop-opacity="1"/>
<stop offset="0.269531" stop-color="rgb(92.633057%, 92.498779%, 92.532349%)" stop-opacity="1"/>
<stop offset="0.273438" stop-color="rgb(92.071533%, 91.928101%, 91.963196%)" stop-opacity="1"/>
<stop offset="0.277344" stop-color="rgb(91.514587%, 91.358948%, 91.397095%)" stop-opacity="1"/>
<stop offset="0.28125" stop-color="rgb(90.953064%, 90.788269%, 90.829468%)" stop-opacity="1"/>
<stop offset="0.285156" stop-color="rgb(90.393066%, 90.219116%, 90.261841%)" stop-opacity="1"/>
<stop offset="0.289062" stop-color="rgb(89.831543%, 89.646912%, 89.692688%)" stop-opacity="1"/>
<stop offset="0.292969" stop-color="rgb(89.271545%, 89.076233%, 89.125061%)" stop-opacity="1"/>
<stop offset="0.296875" stop-color="rgb(88.713074%, 88.50708%, 88.55896%)" stop-opacity="1"/>
<stop offset="0.300781" stop-color="rgb(88.154602%, 87.939453%, 87.992859%)" stop-opacity="1"/>
<stop offset="0.304688" stop-color="rgb(87.593079%, 87.367249%, 87.423706%)" stop-opacity="1"/>
<stop offset="0.308594" stop-color="rgb(87.034607%, 86.798096%, 86.857605%)" stop-opacity="1"/>
<stop offset="0.3125" stop-color="rgb(86.471558%, 86.225891%, 86.286926%)" stop-opacity="1"/>
<stop offset="0.316406" stop-color="rgb(85.913086%, 85.656738%, 85.719299%)" stop-opacity="1"/>
<stop offset="0.320312" stop-color="rgb(85.351562%, 85.08606%, 85.151672%)" stop-opacity="1"/>
<stop offset="0.324219" stop-color="rgb(84.793091%, 84.516907%, 84.585571%)" stop-opacity="1"/>
<stop offset="0.328125" stop-color="rgb(84.233093%, 83.946228%, 84.017944%)" stop-opacity="1"/>
<stop offset="0.332031" stop-color="rgb(83.673096%, 83.377075%, 83.450317%)" stop-opacity="1"/>
<stop offset="0.335938" stop-color="rgb(83.111572%, 82.804871%, 82.881165%)" stop-opacity="1"/>
<stop offset="0.339844" stop-color="rgb(82.551575%, 82.234192%, 82.313538%)" stop-opacity="1"/>
<stop offset="0.34375" stop-color="rgb(81.991577%, 81.663513%, 81.744385%)" stop-opacity="1"/>
<stop offset="0.347656" stop-color="rgb(81.433105%, 81.095886%, 81.17981%)" stop-opacity="1"/>
<stop offset="0.351562" stop-color="rgb(80.871582%, 80.523682%, 80.610657%)" stop-opacity="1"/>
<stop offset="0.355469" stop-color="rgb(80.311584%, 79.953003%, 80.041504%)" stop-opacity="1"/>
<stop offset="0.359375" stop-color="rgb(79.750061%, 79.382324%, 79.473877%)" stop-opacity="1"/>
<stop offset="0.363281" stop-color="rgb(79.191589%, 78.813171%, 78.90625%)" stop-opacity="1"/>
<stop offset="0.367188" stop-color="rgb(78.631592%, 78.242493%, 78.340149%)" stop-opacity="1"/>
<stop offset="0.371094" stop-color="rgb(78.07312%, 77.674866%, 77.774048%)" stop-opacity="1"/>
<stop offset="0.375" stop-color="rgb(77.513123%, 77.104187%, 77.204895%)" stop-opacity="1"/>
<stop offset="0.378906" stop-color="rgb(76.951599%, 76.531982%, 76.637268%)" stop-opacity="1"/>
<stop offset="0.382812" stop-color="rgb(76.391602%, 75.961304%, 76.068115%)" stop-opacity="1"/>
<stop offset="0.386719" stop-color="rgb(75.831604%, 75.392151%, 75.502014%)" stop-opacity="1"/>
<stop offset="0.390625" stop-color="rgb(75.271606%, 74.821472%, 74.932861%)" stop-opacity="1"/>
<stop offset="0.394531" stop-color="rgb(74.713135%, 74.252319%, 74.36676%)" stop-opacity="1"/>
<stop offset="0.398438" stop-color="rgb(74.151611%, 73.681641%, 73.799133%)" stop-opacity="1"/>
<stop offset="0.402344" stop-color="rgb(73.591614%, 73.110962%, 73.22998%)" stop-opacity="1"/>
<stop offset="0.40625" stop-color="rgb(73.03009%, 72.540283%, 72.662354%)" stop-opacity="1"/>
<stop offset="0.410156" stop-color="rgb(72.471619%, 71.969604%, 72.094727%)" stop-opacity="1"/>
<stop offset="0.414062" stop-color="rgb(71.910095%, 71.398926%, 71.525574%)" stop-opacity="1"/>
<stop offset="0.417969" stop-color="rgb(71.351624%, 70.831299%, 70.960999%)" stop-opacity="1"/>
<stop offset="0.421875" stop-color="rgb(70.7901%, 70.259094%, 70.39032%)" stop-opacity="1"/>
<stop offset="0.425781" stop-color="rgb(70.230103%, 69.688416%, 69.824219%)" stop-opacity="1"/>
<stop offset="0.429688" stop-color="rgb(69.670105%, 69.117737%, 69.255066%)" stop-opacity="1"/>
<stop offset="0.433594" stop-color="rgb(69.111633%, 68.55011%, 68.688965%)" stop-opacity="1"/>
<stop offset="0.4375" stop-color="rgb(68.551636%, 67.979431%, 68.121338%)" stop-opacity="1"/>
<stop offset="0.441406" stop-color="rgb(67.991638%, 67.408752%, 67.553711%)" stop-opacity="1"/>
<stop offset="0.445312" stop-color="rgb(67.430115%, 66.838074%, 66.984558%)" stop-opacity="1"/>
<stop offset="0.449219" stop-color="rgb(66.871643%, 66.268921%, 66.418457%)" stop-opacity="1"/>
<stop offset="0.453125" stop-color="rgb(66.311646%, 65.698242%, 65.85083%)" stop-opacity="1"/>
<stop offset="0.457031" stop-color="rgb(65.751648%, 65.129089%, 65.284729%)" stop-opacity="1"/>
<stop offset="0.460938" stop-color="rgb(65.19165%, 64.558411%, 64.715576%)" stop-opacity="1"/>
<stop offset="0.464844" stop-color="rgb(64.631653%, 63.989258%, 64.147949%)" stop-opacity="1"/>
<stop offset="0.46875" stop-color="rgb(64.070129%, 63.415527%, 63.578796%)" stop-opacity="1"/>
<stop offset="0.472656" stop-color="rgb(63.510132%, 62.846375%, 63.011169%)" stop-opacity="1"/>
<stop offset="0.476562" stop-color="rgb(62.95166%, 62.277222%, 62.445068%)" stop-opacity="1"/>
<stop offset="0.480469" stop-color="rgb(62.391663%, 61.706543%, 61.877441%)" stop-opacity="1"/>
<stop offset="0.484375" stop-color="rgb(61.831665%, 61.135864%, 61.308289%)" stop-opacity="1"/>
<stop offset="0.488281" stop-color="rgb(61.271667%, 60.566711%, 60.742188%)" stop-opacity="1"/>
<stop offset="0.492188" stop-color="rgb(60.708618%, 59.994507%, 60.171509%)" stop-opacity="1"/>
<stop offset="0.496094" stop-color="rgb(60.150146%, 59.425354%, 59.605408%)" stop-opacity="1"/>
<stop offset="0.5" stop-color="rgb(59.590149%, 58.854675%, 59.037781%)" stop-opacity="1"/>
<stop offset="0.503906" stop-color="rgb(59.031677%, 58.285522%, 58.470154%)" stop-opacity="1"/>
<stop offset="0.507812" stop-color="rgb(58.470154%, 57.714844%, 57.902527%)" stop-opacity="1"/>
<stop offset="0.511719" stop-color="rgb(57.910156%, 57.144165%, 57.333374%)" stop-opacity="1"/>
<stop offset="0.515625" stop-color="rgb(57.350159%, 56.573486%, 56.767273%)" stop-opacity="1"/>
<stop offset="0.519531" stop-color="rgb(56.790161%, 56.004333%, 56.199646%)" stop-opacity="1"/>
<stop offset="0.523438" stop-color="rgb(56.231689%, 55.435181%, 55.632019%)" stop-opacity="1"/>
<stop offset="0.527344" stop-color="rgb(55.671692%, 54.864502%, 55.065918%)" stop-opacity="1"/>
<stop offset="0.53125" stop-color="rgb(55.110168%, 54.293823%, 54.496765%)" stop-opacity="1"/>
<stop offset="0.535156" stop-color="rgb(54.550171%, 53.723145%, 53.929138%)" stop-opacity="1"/>
<stop offset="0.539062" stop-color="rgb(53.988647%, 53.152466%, 53.359985%)" stop-opacity="1"/>
<stop offset="0.542969" stop-color="rgb(53.430176%, 52.581787%, 52.792358%)" stop-opacity="1"/>
<stop offset="0.546875" stop-color="rgb(52.870178%, 52.012634%, 52.226257%)" stop-opacity="1"/>
<stop offset="0.550781" stop-color="rgb(52.310181%, 51.443481%, 51.65863%)" stop-opacity="1"/>
<stop offset="0.554688" stop-color="rgb(51.750183%, 50.872803%, 51.089478%)" stop-opacity="1"/>
<stop offset="0.558594" stop-color="rgb(51.18866%, 50.300598%, 50.521851%)" stop-opacity="1"/>
<stop offset="0.5625" stop-color="rgb(50.628662%, 49.729919%, 49.952698%)" stop-opacity="1"/>
<stop offset="0.566406" stop-color="rgb(50.068665%, 49.160767%, 49.386597%)" stop-opacity="1"/>
<stop offset="0.570312" stop-color="rgb(49.510193%, 48.590088%, 48.81897%)" stop-opacity="1"/>
<stop offset="0.574219" stop-color="rgb(48.950195%, 48.020935%, 48.251343%)" stop-opacity="1"/>
<stop offset="0.578125" stop-color="rgb(48.388672%, 47.44873%, 47.68219%)" stop-opacity="1"/>
<stop offset="0.582031" stop-color="rgb(47.828674%, 46.879578%, 47.114563%)" stop-opacity="1"/>
<stop offset="0.585938" stop-color="rgb(47.267151%, 46.308899%, 46.546936%)" stop-opacity="1"/>
<stop offset="0.589844" stop-color="rgb(46.708679%, 45.73822%, 45.979309%)" stop-opacity="1"/>
<stop offset="0.59375" stop-color="rgb(46.150208%, 45.170593%, 45.413208%)" stop-opacity="1"/>
<stop offset="0.597656" stop-color="rgb(45.59021%, 44.599915%, 44.847107%)" stop-opacity="1"/>
<stop offset="0.601562" stop-color="rgb(45.028687%, 44.02771%, 44.276428%)" stop-opacity="1"/>
<stop offset="0.605469" stop-color="rgb(44.468689%, 43.458557%, 43.710327%)" stop-opacity="1"/>
<stop offset="0.609375" stop-color="rgb(43.908691%, 42.887878%, 43.141174%)" stop-opacity="1"/>
<stop offset="0.613281" stop-color="rgb(43.348694%, 42.318726%, 42.573547%)" stop-opacity="1"/>
<stop offset="0.617187" stop-color="rgb(42.790222%, 41.748047%, 42.007446%)" stop-opacity="1"/>
<stop offset="0.621094" stop-color="rgb(42.230225%, 41.178894%, 41.439819%)" stop-opacity="1"/>
<stop offset="0.625" stop-color="rgb(41.668701%, 40.606689%, 40.870667%)" stop-opacity="1"/>
<stop offset="0.628906" stop-color="rgb(41.108704%, 40.037537%, 40.30304%)" stop-opacity="1"/>
<stop offset="0.632813" stop-color="rgb(40.548706%, 39.466858%, 39.735413%)" stop-opacity="1"/>
<stop offset="0.636719" stop-color="rgb(39.990234%, 38.897705%, 39.169312%)" stop-opacity="1"/>
<stop offset="0.640625" stop-color="rgb(39.428711%, 38.327026%, 38.600159%)" stop-opacity="1"/>
<stop offset="0.644531" stop-color="rgb(38.868713%, 37.754822%, 38.032532%)" stop-opacity="1"/>
<stop offset="0.648437" stop-color="rgb(38.30719%, 37.184143%, 37.463379%)" stop-opacity="1"/>
<stop offset="0.652344" stop-color="rgb(37.747192%, 36.61499%, 36.895752%)" stop-opacity="1"/>
<stop offset="0.65625" stop-color="rgb(37.188721%, 36.045837%, 36.329651%)" stop-opacity="1"/>
<stop offset="0.660156" stop-color="rgb(36.628723%, 35.475159%, 35.762024%)" stop-opacity="1"/>
<stop offset="0.664063" stop-color="rgb(36.068726%, 34.906006%, 35.194397%)" stop-opacity="1"/>
<stop offset="0.667969" stop-color="rgb(35.508728%, 34.335327%, 34.62677%)" stop-opacity="1"/>
<stop offset="0.671875" stop-color="rgb(34.947205%, 33.764648%, 34.057617%)" stop-opacity="1"/>
<stop offset="0.675781" stop-color="rgb(34.388733%, 33.19397%, 33.491516%)" stop-opacity="1"/>
<stop offset="0.679687" stop-color="rgb(33.828735%, 32.624817%, 32.923889%)" stop-opacity="1"/>
<stop offset="0.683594" stop-color="rgb(33.270264%, 32.055664%, 32.356262%)" stop-opacity="1"/>
<stop offset="0.6875" stop-color="rgb(32.70874%, 31.483459%, 31.788635%)" stop-opacity="1"/>
<stop offset="0.691406" stop-color="rgb(32.147217%, 30.912781%, 31.219482%)" stop-opacity="1"/>
<stop offset="0.695313" stop-color="rgb(31.587219%, 30.342102%, 30.651855%)" stop-opacity="1"/>
<stop offset="0.699219" stop-color="rgb(31.027222%, 29.772949%, 30.084229%)" stop-opacity="1"/>
<stop offset="0.703125" stop-color="rgb(30.46875%, 29.202271%, 29.516602%)" stop-opacity="1"/>
<stop offset="0.707031" stop-color="rgb(29.908752%, 28.633118%, 28.9505%)" stop-opacity="1"/>
<stop offset="0.710937" stop-color="rgb(29.348755%, 28.062439%, 28.381348%)" stop-opacity="1"/>
<stop offset="0.714844" stop-color="rgb(28.787231%, 27.49176%, 27.813721%)" stop-opacity="1"/>
<stop offset="0.71875" stop-color="rgb(28.227234%, 26.919556%, 27.244568%)" stop-opacity="1"/>
<stop offset="0.722656" stop-color="rgb(27.668762%, 26.351929%, 26.678467%)" stop-opacity="1"/>
<stop offset="0.726563" stop-color="rgb(27.107239%, 25.78125%, 26.11084%)" stop-opacity="1"/>
<stop offset="0.730469" stop-color="rgb(26.548767%, 25.212097%, 25.543213%)" stop-opacity="1"/>
<stop offset="0.734375" stop-color="rgb(25.985718%, 24.638367%, 24.97406%)" stop-opacity="1"/>
<stop offset="0.738281" stop-color="rgb(25.427246%, 24.069214%, 24.406433%)" stop-opacity="1"/>
<stop offset="0.742187" stop-color="rgb(24.867249%, 23.500061%, 23.838806%)" stop-opacity="1"/>
<stop offset="0.746094" stop-color="rgb(24.308777%, 22.930908%, 23.274231%)" stop-opacity="1"/>
<stop offset="0.75" stop-color="rgb(23.748779%, 22.360229%, 22.705078%)" stop-opacity="1"/>
<stop offset="0.753906" stop-color="rgb(23.188782%, 21.791077%, 22.137451%)" stop-opacity="1"/>
<stop offset="0.757813" stop-color="rgb(22.627258%, 21.218872%, 21.568298%)" stop-opacity="1"/>
<stop offset="0.761719" stop-color="rgb(22.067261%, 20.648193%, 21.000671%)" stop-opacity="1"/>
<stop offset="0.765625" stop-color="rgb(21.505737%, 20.077515%, 20.433044%)" stop-opacity="1"/>
<stop offset="0.769531" stop-color="rgb(20.948792%, 19.509888%, 19.866943%)" stop-opacity="1"/>
<stop offset="0.773437" stop-color="rgb(20.387268%, 18.939209%, 19.297791%)" stop-opacity="1"/>
<stop offset="0.777344" stop-color="rgb(19.827271%, 18.36853%, 18.731689%)" stop-opacity="1"/>
<stop offset="0.78125" stop-color="rgb(19.265747%, 17.796326%, 18.161011%)" stop-opacity="1"/>
<stop offset="0.785156" stop-color="rgb(18.70575%, 17.227173%, 17.59491%)" stop-opacity="1"/>
<stop offset="0.789063" stop-color="rgb(18.145752%, 16.656494%, 17.025757%)" stop-opacity="1"/>
<stop offset="0.792969" stop-color="rgb(17.58728%, 16.087341%, 16.459656%)" stop-opacity="1"/>
<stop offset="0.796875" stop-color="rgb(17.027283%, 15.516663%, 15.892029%)" stop-opacity="1"/>
<stop offset="0.800781" stop-color="rgb(16.465759%, 14.945984%, 15.322876%)" stop-opacity="1"/>
<stop offset="0.804687" stop-color="rgb(15.905762%, 14.375305%, 14.755249%)" stop-opacity="1"/>
<stop offset="0.808594" stop-color="rgb(15.345764%, 13.804626%, 14.187622%)" stop-opacity="1"/>
<stop offset="0.8125" stop-color="rgb(14.785767%, 13.235474%, 13.619995%)" stop-opacity="1"/>
<stop offset="0.816406" stop-color="rgb(14.259338%, 12.69989%, 13.087463%)" stop-opacity="1"/>
<stop offset="0.820313" stop-color="rgb(13.729858%, 12.159729%, 12.548828%)" stop-opacity="1"/>
<stop offset="0.828125" stop-color="rgb(13.729858%, 12.159729%, 12.548828%)" stop-opacity="1"/>
<stop offset="0.84375" stop-color="rgb(13.729858%, 12.159729%, 12.548828%)" stop-opacity="1"/>
<stop offset="0.875" stop-color="rgb(13.729858%, 12.159729%, 12.548828%)" stop-opacity="1"/>
<stop offset="1" stop-color="rgb(13.729858%, 12.159729%, 12.548828%)" stop-opacity="1"/>
</linearGradient>
</defs>
<rect x="-200" y="-200" width="2400" height="2400" fill="rgb(100%, 100%, 100%)" fill-opacity="1"/>
<path fill-rule="nonzero" fill="rgb(16.76178%, 15.248108%, 15.623474%)" fill-opacity="1" d="M 1740.988281 410.558594 L 1545.921875 410.558594 L 1558.171875 386.058594 L 1675.558594 386.058594 L 1695.558594 335.058594 L 1771.949219 335.058594 Z M 1380.480469 386.058594 L 1392.730469 410.558594 L 1197.660156 410.558594 L 1166.699219 335.058594 L 1243.078125 335.058594 L 1263.078125 386.058594 Z M 1606.28125 310.558594 L 1592.28125 296.558594 L 1473.960938 296.558594 L 1473.960938 796.738281 L 1469.320312 801.371094 L 1464.691406 796.738281 L 1464.691406 296.558594 L 1346.359375 296.558594 L 1332.359375 310.558594 L 1130.179688 310.558594 L 1181.21875 435.058594 L 1353.191406 435.058594 L 1353.191406 741.890625 L 1388.859375 777.558594 C 1388.691406 778.589844 1388.609375 779.648438 1388.609375 780.730469 C 1388.609375 791.730469 1397.519531 800.648438 1408.519531 800.648438 C 1419.519531 800.648438 1428.441406 791.730469 1428.441406 780.730469 C 1428.441406 769.730469 1419.519531 760.808594 1408.519531 760.808594 C 1407.960938 760.808594 1407.390625 760.839844 1406.839844 760.890625 L 1377.691406 731.738281 L 1377.691406 435.058594 L 1394.191406 435.058594 L 1394.191406 686.890625 C 1407.609375 700.359375 1421.019531 713.839844 1434.441406 727.308594 C 1434.488281 715.761719 1434.550781 704.210938 1434.601562 692.648438 L 1418.691406 676.738281 L 1418.691406 410.558594 L 1395.441406 361.558594 L 1279.789062 361.558594 L 1269.398438 335.058594 L 1342.511719 335.058594 L 1356.511719 321.058594 L 1440.191406 321.058594 L 1440.191406 806.890625 L 1469.320312 836.019531 L 1486.648438 818.699219 L 1498.460938 806.890625 L 1498.460938 321.058594 L 1582.128906 321.058594 L 1596.128906 335.058594 L 1669.25 335.058594 L 1658.851562 361.558594 L 1543.210938 361.558594 L 1519.960938 410.558594 L 1519.960938 676.738281 L 1504.050781 692.648438 C 1504.101562 704.210938 1504.148438 715.761719 1504.210938 727.308594 C 1517.628906 713.839844 1531.039062 700.359375 1544.460938 686.890625 L 1544.460938 435.058594 L 1560.960938 435.058594 L 1560.960938 731.738281 L 1531.808594 760.890625 C 1531.25 760.839844 1530.691406 760.808594 1530.128906 760.808594 C 1519.128906 760.808594 1510.210938 769.730469 1510.210938 780.730469 C 1510.210938 791.730469 1519.128906 800.648438 1530.128906 800.648438 C 1541.121094 800.648438 1550.039062 791.730469 1550.039062 780.730469 C 1550.039062 779.648438 1549.949219 778.589844 1549.789062 777.558594 L 1585.460938 741.890625 L 1585.460938 435.058594 L 1757.429688 435.058594 L 1808.46875 310.558594 L 1606.28125 310.558594 "/>
<path fill-rule="nonzero" fill="rgb(16.76178%, 15.248108%, 15.623474%)" fill-opacity="1" d="M 594.175781 472.921875 L 574.402344 472.921875 L 574.402344 778.988281 L 545.042969 778.988281 L 545.042969 429.710938 L 572.90625 343.300781 L 711.492188 343.300781 L 723.949219 296.558594 L 636.332031 296.558594 L 619.554688 271.871094 L 419 271.871094 L 402.222656 296.558594 L 314.605469 296.558594 L 327.058594 343.300781 L 465.648438 343.300781 L 493.511719 429.710938 L 493.511719 778.988281 L 464.148438 778.988281 L 464.148438 472.921875 L 444.378906 472.921875 L 444.378906 778.988281 L 428.746094 778.988281 L 428.746094 817.929688 L 609.804688 817.929688 L 609.804688 778.988281 L 594.175781 778.988281 L 594.175781 472.921875 "/>
<path fill-rule="nonzero" fill="rgb(16.76178%, 15.248108%, 15.623474%)" fill-opacity="1" d="M 447.722656 386.511719 L 307.035156 386.511719 L 307.03125 386.488281 L 307.105469 386.511719 L 283.136719 296.558594 L 283.078125 296.609375 L 283.066406 296.558594 L 191.527344 296.558594 L 201.234375 331.390625 L 278.828125 331.390625 C 280.058594 336.101562 281.285156 340.800781 282.515625 345.5 L 205.164062 345.5 L 228.625 429.710938 L 462.402344 429.710938 L 447.722656 386.511719 "/>
<path fill-rule="nonzero" fill="rgb(16.76178%, 15.248108%, 15.623474%)" fill-opacity="1" d="M 837.320312 331.390625 L 847.023438 296.558594 L 755.484375 296.558594 L 755.472656 296.609375 L 755.414062 296.558594 L 731.445312 386.511719 L 731.523438 386.488281 L 731.519531 386.511719 L 590.832031 386.511719 L 576.148438 429.710938 L 809.925781 429.710938 L 833.390625 345.5 L 756.035156 345.5 C 757.265625 340.800781 758.496094 336.101562 759.722656 331.390625 L 837.320312 331.390625 "/>
<path fill-rule="nonzero" fill="rgb(16.76178%, 15.248108%, 15.623474%)" fill-opacity="1" d="M 755.308594 1312.578125 L 534.277344 1312.578125 L 534.277344 1589.121094 L 519.277344 1604.710938 L 504.277344 1589.121094 L 504.277344 1312.578125 L 283.242188 1312.578125 L 252.289062 1234.140625 L 328.671875 1234.140625 L 348.671875 1287.128906 L 492.652344 1287.128906 L 481.027344 1261.679688 L 365.382812 1261.679688 L 354.988281 1234.140625 L 428.101562 1234.140625 L 442.101562 1219.601562 L 596.453125 1219.601562 L 610.453125 1234.140625 L 683.5625 1234.140625 L 673.171875 1261.679688 L 557.527344 1261.679688 L 545.902344 1287.128906 L 689.882812 1287.128906 L 709.882812 1234.140625 L 786.265625 1234.140625 Z M 620.601562 1208.691406 L 606.601562 1194.148438 L 431.953125 1194.148438 L 417.953125 1208.691406 L 215.765625 1208.691406 L 266.808594 1338.039062 L 438.777344 1338.039062 L 438.777344 1656.808594 L 474.445312 1693.871094 C 474.28125 1694.941406 474.191406 1696.039062 474.191406 1697.160156 C 474.191406 1708.589844 483.109375 1717.851562 494.109375 1717.851562 C 505.109375 1717.851562 514.027344 1708.589844 514.027344 1697.160156 C 514.027344 1685.730469 505.109375 1676.46875 494.109375 1676.46875 C 493.542969 1676.46875 492.980469 1676.5 492.425781 1676.550781 L 463.277344 1646.261719 L 463.277344 1338.039062 L 479.777344 1338.039062 L 479.777344 1599.671875 C 492.691406 1613.140625 505.605469 1626.621094 518.519531 1640.089844 C 518.773438 1640.359375 519.023438 1640.621094 519.277344 1640.878906 C 519.527344 1640.621094 519.78125 1640.359375 520.035156 1640.089844 C 532.949219 1626.621094 545.863281 1613.140625 558.777344 1599.671875 L 558.777344 1338.039062 L 575.277344 1338.039062 L 575.277344 1646.261719 L 546.125 1676.550781 C 545.570312 1676.5 545.011719 1676.46875 544.441406 1676.46875 C 533.445312 1676.46875 524.527344 1685.730469 524.527344 1697.160156 C 524.527344 1708.589844 533.445312 1717.851562 544.441406 1717.851562 C 555.441406 1717.851562 564.359375 1708.589844 564.359375 1697.160156 C 564.359375 1696.039062 564.269531 1694.941406 564.105469 1693.871094 L 599.777344 1656.808594 L 599.777344 1338.039062 L 771.742188 1338.039062 L 822.789062 1208.691406 L 620.601562 1208.691406 "/>
<path fill-rule="nonzero" fill="rgb(16.76178%, 15.248108%, 15.623474%)" fill-opacity="1" d="M 1575.050781 1216.851562 L 1561.691406 1203.5 L 1376.949219 1203.5 L 1363.601562 1216.851562 L 1147.148438 1216.851562 L 1213.828125 1379.460938 L 1370.609375 1379.460938 L 1370.609375 1659.238281 L 1404.878906 1693.5 C 1407.929688 1713.179688 1425.050781 1728.128906 1445.320312 1728.128906 C 1454.011719 1728.128906 1462.398438 1725.351562 1469.320312 1720.328125 C 1476.25 1725.351562 1484.628906 1728.128906 1493.328125 1728.128906 C 1513.601562 1728.128906 1530.710938 1713.179688 1533.769531 1693.5 L 1568.03125 1659.238281 L 1568.03125 1379.460938 L 1724.820312 1379.460938 L 1791.488281 1216.851562 L 1575.050781 1216.851562 "/>
<g clip-path="url(#clip-0)">
<g clip-path="url(#clip-1)">
<g clip-path="url(#clip-2)">
<path fill-rule="nonzero" fill="url(#linear-pattern-0)" d="M 1999.144531 1469.402344 L 1473.652344 935.996094 L 939.507812 1462.21875 L 1465 1995.621094 Z M 1999.144531 1469.402344 "/>
</g>
</g>
</g>
</svg>
